<svg width="98" height="18" viewBox="0 0 98 18" fill="none" xmlns="http://www.w3.org/2000/svg">
<path fill-rule="evenodd" clip-rule="evenodd" d="M94.4286 8.85714C96.3221 8.85714 97.8571 7.32212 97.8571 5.42857C97.8571 3.53502 96.3221 2 94.4286 2C92.535 2 91 3.53502 91 5.42857C91 7.32212 92.535 8.85714 94.4286 8.85714Z" fill="#005490"/>
<path d="M4.12854 8.53H11.5205V11.39H4.12854V8.53ZM4.39254 17H0.828541V1.6H12.4665V4.46H4.39254V17ZM14.8373 17V0.675999H18.2693V17H14.8373ZM27.2865 17.176C26.0252 17.176 24.9032 16.912 23.9205 16.384C22.9525 15.856 22.1825 15.1373 21.6105 14.228C21.0532 13.304 20.7745 12.2553 20.7745 11.082C20.7745 9.894 21.0532 8.84533 21.6105 7.936C22.1825 7.012 22.9525 6.29333 23.9205 5.78C24.9032 5.252 26.0252 4.988 27.2865 4.988C28.5332 4.988 29.6478 5.252 30.6305 5.78C31.6132 6.29333 32.3832 7.00467 32.9405 7.914C33.4978 8.82333 33.7765 9.87933 33.7765 11.082C33.7765 12.2553 33.4978 13.304 32.9405 14.228C32.3832 15.1373 31.6132 15.856 30.6305 16.384C29.6478 16.912 28.5332 17.176 27.2865 17.176ZM27.2865 14.36C27.8585 14.36 28.3718 14.228 28.8265 13.964C29.2812 13.7 29.6405 13.326 29.9045 12.842C30.1685 12.3433 30.3005 11.7567 30.3005 11.082C30.3005 10.3927 30.1685 9.806 29.9045 9.322C29.6405 8.838 29.2812 8.464 28.8265 8.2C28.3718 7.936 27.8585 7.804 27.2865 7.804C26.7145 7.804 26.2012 7.936 25.7465 8.2C25.2918 8.464 24.9252 8.838 24.6465 9.322C24.3825 9.806 24.2505 10.3927 24.2505 11.082C24.2505 11.7567 24.3825 12.3433 24.6465 12.842C24.9252 13.326 25.2918 13.7 25.7465 13.964C26.2012 14.228 26.7145 14.36 27.2865 14.36ZM41.9025 17.176C40.6412 17.176 39.5192 16.912 38.5365 16.384C37.5685 15.856 36.7985 15.1373 36.2265 14.228C35.6692 13.304 35.3905 12.2553 35.3905 11.082C35.3905 9.894 35.6692 8.84533 36.2265 7.936C36.7985 7.012 37.5685 6.29333 38.5365 5.78C39.5192 5.252 40.6412 4.988 41.9025 4.988C43.1492 4.988 44.2639 5.252 45.2465 5.78C46.2292 6.29333 46.9992 7.00467 47.5565 7.914C48.1139 8.82333 48.3925 9.87933 48.3925 11.082C48.3925 12.2553 48.1139 13.304 47.5565 14.228C46.9992 15.1373 46.2292 15.856 45.2465 16.384C44.2639 16.912 43.1492 17.176 41.9025 17.176ZM41.9025 14.36C42.4745 14.36 42.9879 14.228 43.4425 13.964C43.8972 13.7 44.2565 13.326 44.5205 12.842C44.7845 12.3433 44.9165 11.7567 44.9165 11.082C44.9165 10.3927 44.7845 9.806 44.5205 9.322C44.2565 8.838 43.8972 8.464 43.4425 8.2C42.9879 7.936 42.4745 7.804 41.9025 7.804C41.3305 7.804 40.8172 7.936 40.3625 8.2C39.9079 8.464 39.5412 8.838 39.2625 9.322C38.9985 9.806 38.8665 10.3927 38.8665 11.082C38.8665 11.7567 38.9985 12.3433 39.2625 12.842C39.5412 13.326 39.9079 13.7 40.3625 13.964C40.8172 14.228 41.3305 14.36 41.9025 14.36ZM55.9685 17.176C54.8539 17.176 53.8492 16.9267 52.9545 16.428C52.0599 15.9147 51.3485 15.2033 50.8205 14.294C50.3072 13.3847 50.0505 12.314 50.0505 11.082C50.0505 9.83533 50.3072 8.75733 50.8205 7.848C51.3485 6.93867 52.0599 6.23467 52.9545 5.736C53.8492 5.23733 54.8539 4.988 55.9685 4.988C56.9659 4.988 57.8385 5.208 58.5865 5.648C59.3345 6.088 59.9139 6.75533 60.3245 7.65C60.7352 8.54467 60.9405 9.68867 60.9405 11.082C60.9405 12.4607 60.7425 13.6047 60.3465 14.514C59.9505 15.4087 59.3785 16.076 58.6305 16.516C57.8972 16.956 57.0099 17.176 55.9685 17.176ZM56.5625 14.36C57.1199 14.36 57.6259 14.228 58.0805 13.964C58.5352 13.7 58.8945 13.326 59.1585 12.842C59.4372 12.3433 59.5765 11.7567 59.5765 11.082C59.5765 10.3927 59.4372 9.806 59.1585 9.322C58.8945 8.838 58.5352 8.464 58.0805 8.2C57.6259 7.936 57.1199 7.804 56.5625 7.804C55.9905 7.804 55.4772 7.936 55.0225 8.2C54.5679 8.464 54.2012 8.838 53.9225 9.322C53.6585 9.806 53.5265 10.3927 53.5265 11.082C53.5265 11.7567 53.6585 12.3433 53.9225 12.842C54.2012 13.326 54.5679 13.7 55.0225 13.964C55.4772 14.228 55.9905 14.36 56.5625 14.36ZM59.6645 17V14.58L59.7305 11.06L59.5105 7.562V0.675999H62.9425V17H59.6645ZM64.537 17L71.401 1.6H74.921L81.807 17H78.067L72.435 3.404H73.843L68.189 17H64.537ZM67.969 13.7L68.915 10.994H76.835L77.803 13.7H67.969ZM83.6047 17V1.6H87.1687V17H83.6047Z" fill="white"/>
</svg>
